<!-- Generated by IcoMoon.io -->
<svg version="1.1" xmlns="http://www.w3.org/2000/svg" width="448" height="448" viewBox="0 0 448 448">
<title></title>
<g id="icomoon-ignore">
</g>
<path fill="#000" d="M427.234 310.754l-96.188-41.216c-4.111-1.755-8.681-2.124-13.021-1.057-4.34 1.070-8.214 3.523-11.039 6.986l-42.612 52.047c-66.858-31.523-120.664-85.33-152.188-152.188l52.047-42.613c3.471-2.82 5.928-6.694 6.998-11.036s0.695-8.914-1.068-13.024l-41.242-96.188c-1.926-4.407-5.324-8.007-9.612-10.185s-9.2-2.797-13.894-1.753l-89.442 20.555c-4.553 1.052-8.614 3.62-11.516 7.283s-4.473 8.204-4.454 12.877c-0.004 52.337 10.303 104.163 30.33 152.517s49.383 92.288 86.391 129.299c37.008 37.007 80.944 66.362 129.298 86.39s100.18 30.332 152.517 30.33c4.665 0.005 9.192-1.571 12.845-4.469 3.653-2.901 6.214-6.957 7.263-11.501l20.608-89.337c1.065-4.738 0.445-9.698-1.753-14.025-2.201-4.33-5.811-7.758-10.265-9.693z"></path>
</svg>
